<svg width="691" height="2227" viewBox="0 0 691 2227" fill="none" xmlns="http://www.w3.org/2000/svg">
<path opacity="0.0416667" d="M1381.91 1386.59C1399.71 1450.13 1304.99 1672.76 1174.08 1863.93C1138.79 1865.84 1033.23 1862.44 893.258 1833.59C718.288 1797.54 666.948 1644.74 492.708 1454.82C318.467 1264.9 384.214 1182.48 331.791 943.742C279.367 705.002 382.266 751.683 469.879 559.603C557.492 367.524 888.424 263.612 1101.31 113.612C1314.2 -36.3884 1490.85 80.883 1515.22 131.856C1539.59 182.83 1517.36 304.858 1480.72 364.495C1444.08 424.131 1347.76 494.013 1242.13 538.424C1136.49 582.835 1125.45 759.363 1096.84 841.764C1068.23 924.165 1177.08 1016.77 1290.01 1103.55C1402.94 1190.32 1364.1 1323.06 1381.91 1386.59Z" stroke="url(#paint0_linear_20_135)" stroke-opacity="0.5" stroke-width="10"/>
<path opacity="0.0833333" d="M1396.69 1389.33C1414.33 1452.9 1319.2 1675.17 1188 1865.86C1152.75 1867.65 1047.31 1863.9 907.549 1834.6C732.849 1797.98 681.913 1645.05 508.293 1454.6C334.673 1264.15 400.537 1181.97 348.714 943.116C296.892 704.263 399.574 751.272 487.53 559.529C575.486 367.786 906.3 264.992 1119.3 115.732C1332.3 -33.5285 1508.5 84.2971 1532.72 135.338C1556.95 186.38 1534.46 308.304 1497.73 367.805C1460.99 427.306 1364.62 496.853 1259 540.904C1153.37 584.955 1141.94 761.403 1113.17 843.69C1084.41 925.976 1192.93 1018.92 1305.54 1106.05C1418.15 1193.17 1379.05 1325.75 1396.69 1389.33Z" stroke="url(#paint1_linear_20_135)" stroke-opacity="0.5" stroke-width="10"/>
<path opacity="0.125" d="M1411.48 1392.06C1428.96 1455.68 1333.43 1677.58 1201.93 1867.79C1166.71 1869.46 1061.4 1865.37 921.853 1835.62C747.426 1798.43 696.894 1645.36 523.896 1454.39C350.898 1263.42 416.879 1181.47 365.657 942.504C314.435 703.538 416.899 750.874 505.198 559.468C593.497 368.062 924.188 266.386 1137.3 117.865C1350.41 -30.6565 1526.14 87.7216 1550.23 138.83C1574.32 189.939 1551.57 311.76 1514.74 371.125C1477.91 430.49 1381.48 499.702 1275.87 543.393C1170.26 587.085 1158.44 763.453 1129.52 845.624C1100.59 927.795 1208.79 1021.07 1321.08 1108.55C1433.36 1196.03 1394.01 1328.44 1411.48 1392.06Z" stroke="url(#paint2_linear_20_135)" stroke-opacity="0.5" stroke-width="10"/>
<path opacity="0.166667" d="M1426.28 1394.8C1443.59 1458.47 1347.66 1680 1215.87 1869.72C1180.69 1871.28 1075.49 1866.84 936.172 1836.63C762.018 1798.88 711.891 1645.69 539.516 1454.19C367.141 1262.69 433.238 1180.98 382.617 941.905C331.997 702.828 434.241 750.49 522.882 559.422C611.522 368.353 942.087 267.792 1155.3 120.01C1368.52 -27.7726 1543.8 91.1564 1567.74 142.332C1591.69 193.508 1568.69 315.224 1531.76 374.453C1494.84 433.683 1398.36 502.56 1292.76 545.893C1187.16 589.225 1174.95 765.511 1145.87 847.567C1116.79 929.623 1224.66 1023.23 1336.62 1111.06C1448.59 1198.89 1408.97 1331.14 1426.28 1394.8Z" stroke="url(#paint3_linear_20_135)" stroke-opacity="0.5" stroke-width="10"/>
<path opacity="0.208333" d="M1441.09 1397.55C1458.24 1461.25 1361.9 1682.41 1229.82 1871.66C1194.67 1873.1 1089.61 1868.32 950.504 1837.66C776.626 1799.34 726.903 1646.02 555.154 1454C383.404 1261.98 449.616 1180.51 399.596 941.319C349.577 702.132 451.602 750.12 540.582 559.39C629.563 368.659 959.997 269.212 1173.32 122.167C1386.64 -24.8767 1561.46 94.6016 1585.26 145.844C1609.06 197.087 1585.81 318.698 1548.79 377.791C1511.77 436.885 1415.23 505.427 1309.65 548.401C1204.07 591.376 1191.47 767.579 1162.23 849.52C1133 931.46 1240.53 1025.4 1352.18 1113.58C1463.82 1201.76 1423.94 1333.84 1441.09 1397.55Z" stroke="url(#paint4_linear_20_135)" stroke-opacity="0.5" stroke-width="10"/>
<path opacity="0.25" d="M1455.91 1400.3C1472.89 1464.04 1376.15 1684.84 1243.78 1873.6C1208.67 1874.93 1103.73 1869.8 964.849 1838.69C791.249 1799.8 741.931 1646.36 570.808 1453.82C399.686 1261.28 466.011 1180.04 416.594 940.746C367.176 701.451 468.979 749.764 558.299 559.372C647.618 368.98 977.919 270.644 1191.35 124.338C1404.77 -21.9686 1579.12 98.0573 1602.78 149.366C1626.44 200.675 1602.93 322.18 1565.82 381.138C1528.7 440.095 1432.12 508.303 1326.55 550.92C1220.99 593.536 1208 769.656 1178.61 851.481C1149.22 933.306 1256.42 1027.58 1367.74 1116.1C1479.06 1204.63 1438.92 1336.55 1455.91 1400.3Z" stroke="url(#paint5_linear_20_135)" stroke-opacity="0.5" stroke-width="10"/>
<path opacity="0.291667" d="M1470.73 1403.05C1487.55 1466.84 1390.41 1687.26 1257.76 1875.55C1222.68 1876.76 1117.86 1871.28 979.208 1839.72C805.888 1800.28 756.975 1646.7 586.481 1453.64C415.986 1260.59 482.425 1179.59 433.609 940.186C384.793 700.785 486.374 749.422 576.032 559.368C665.689 369.315 995.853 272.09 1209.38 126.521C1422.91 -19.0485 1596.79 101.523 1620.31 152.898C1643.82 204.273 1620.06 325.672 1582.85 384.494C1545.64 443.315 1449.01 511.189 1343.46 553.448C1237.92 595.707 1224.54 771.743 1194.99 853.452C1165.45 935.16 1272.31 1029.77 1383.31 1118.64C1494.3 1207.5 1453.91 1339.27 1470.73 1403.05Z" stroke="url(#paint6_linear_20_135)" stroke-opacity="0.5" stroke-width="10"/>
<path opacity="0.333333" d="M1485.56 1405.81C1502.22 1469.64 1404.68 1689.69 1271.74 1877.5C1236.7 1878.59 1132.01 1872.77 993.581 1840.76C820.542 1800.76 772.034 1647.06 602.17 1453.48C432.305 1259.91 498.856 1179.15 450.643 939.64C402.429 700.134 503.787 749.094 593.781 559.38C683.774 369.665 1013.8 273.55 1227.42 128.717C1441.05 -16.1161 1614.47 105 1637.84 156.44C1661.21 207.88 1637.2 329.174 1599.89 387.859C1562.59 446.544 1465.91 514.084 1360.38 555.986C1254.85 597.888 1241.09 773.839 1211.39 855.431C1181.68 937.024 1288.22 1031.96 1398.89 1121.17C1509.56 1210.39 1468.91 1341.99 1485.56 1405.81Z" stroke="url(#paint7_linear_20_135)" stroke-opacity="0.5" stroke-width="10"/>
<path opacity="0.375" d="M1500.4 1408.58C1516.89 1472.45 1418.96 1692.12 1285.74 1879.45C1250.73 1880.43 1146.17 1874.27 1007.97 1841.81C835.211 1801.24 787.109 1647.42 617.877 1453.33C448.644 1259.24 515.306 1178.72 467.695 939.108C420.083 699.498 521.217 748.78 611.546 559.405C701.875 370.03 1031.75 275.022 1245.48 130.925C1459.2 -13.1718 1632.14 108.487 1655.37 159.992C1678.6 211.497 1654.34 332.684 1616.94 391.233C1579.54 449.782 1482.81 516.989 1377.31 558.534C1271.8 600.079 1257.65 775.944 1227.79 857.42C1197.93 938.896 1304.13 1034.16 1414.48 1123.72C1524.82 1213.28 1483.91 1344.71 1500.4 1408.58Z" stroke="url(#paint8_linear_20_135)" stroke-opacity="0.5" stroke-width="10"/>
<path opacity="0.416667" d="M1515.25 1411.35C1531.57 1475.25 1433.25 1694.56 1299.74 1881.41C1264.77 1882.27 1160.34 1875.76 1022.37 1842.86C849.895 1801.74 802.2 1647.79 633.6 1453.19C465 1258.59 531.774 1178.3 484.765 938.588C437.756 698.876 538.664 748.48 629.327 559.445C719.99 370.41 1049.72 276.508 1263.54 133.147C1477.35 -10.2152 1649.83 111.984 1672.91 163.554C1695.99 215.124 1671.48 336.203 1633.99 394.616C1596.5 453.029 1499.72 519.903 1394.24 561.091C1288.75 602.28 1274.21 778.059 1244.2 859.419C1214.19 940.778 1320.06 1036.37 1430.07 1126.27C1540.09 1216.17 1498.92 1347.44 1515.25 1411.35Z" stroke="url(#paint9_linear_20_135)" stroke-opacity="0.5" stroke-width="10"/>
<path opacity="0.458333" d="M1530.1 1414.12C1546.26 1478.07 1447.54 1697 1313.76 1883.37C1278.83 1884.11 1174.53 1877.27 1036.78 1843.92C864.595 1802.24 817.306 1648.17 649.341 1453.05C481.375 1257.94 548.259 1177.9 501.852 938.083C455.446 698.27 556.128 748.194 647.124 559.499C738.121 370.805 1067.7 278.007 1281.61 135.38C1495.51 -7.24656 1667.52 115.492 1690.45 167.126C1713.39 218.76 1688.63 339.732 1651.05 398.009C1613.47 456.285 1516.64 522.826 1411.18 563.659C1305.72 604.491 1290.79 780.183 1260.63 861.426C1230.47 942.668 1335.99 1038.59 1445.68 1128.83C1555.36 1219.07 1513.94 1350.17 1530.1 1414.12Z" stroke="url(#paint10_linear_20_135)" stroke-opacity="0.5" stroke-width="10"/>
<path opacity="0.5" d="M1544.97 1416.9C1560.96 1480.89 1461.85 1699.45 1327.78 1885.33C1292.89 1885.96 1188.72 1878.78 1051.21 1844.98C879.31 1802.74 832.428 1648.55 665.099 1452.93C497.769 1257.31 564.762 1177.5 518.958 937.591C473.155 697.679 573.61 747.922 664.938 559.568C756.266 371.215 1085.69 279.52 1299.68 137.627C1513.68 -4.26571 1685.21 119.011 1708 170.709C1730.8 222.407 1705.78 343.27 1668.11 401.41C1630.44 459.551 1533.57 525.758 1428.13 566.236C1322.69 606.713 1307.38 782.317 1277.06 863.442C1246.75 944.568 1351.93 1040.81 1461.29 1131.39C1570.64 1221.97 1528.97 1352.91 1544.97 1416.9Z" stroke="url(#paint11_linear_20_135)" stroke-opacity="0.5" stroke-width="10"/>
<path opacity="0.541667" d="M1559.84 1419.68C1575.67 1483.71 1476.16 1701.9 1341.82 1887.3C1306.96 1887.82 1202.93 1880.29 1065.65 1846.05C894.04 1803.26 847.565 1648.95 680.873 1452.82C514.182 1256.69 581.282 1177.12 536.082 937.112C490.882 697.103 591.108 747.665 682.767 559.652C774.426 371.64 1103.69 281.046 1317.77 139.887C1531.85 -1.27263 1702.9 122.54 1725.55 174.301C1748.2 226.062 1722.94 346.817 1685.18 404.821C1647.41 462.825 1550.5 528.7 1445.09 568.823C1339.68 608.945 1323.97 784.46 1293.51 865.468C1263.04 946.476 1367.89 1043.04 1476.91 1133.96C1585.93 1224.88 1544.01 1355.66 1559.84 1419.68Z" stroke="url(#paint12_linear_20_135)" stroke-opacity="0.5" stroke-width="10"/>
<path opacity="0.583333" d="M1574.71 1422.47C1590.38 1486.53 1490.49 1704.35 1355.87 1889.27C1321.05 1889.67 1217.15 1881.81 1080.1 1847.13C908.785 1803.78 862.718 1649.35 696.665 1452.72C530.613 1256.09 597.821 1176.75 553.224 936.648C508.627 696.542 608.624 747.422 700.612 559.751C792.6 372.08 1121.7 282.586 1335.87 142.159C1550.03 1.7327 1720.61 126.079 1743.11 177.904C1765.62 229.728 1740.11 350.374 1702.25 408.241C1664.39 466.108 1567.44 531.651 1462.05 571.42C1356.67 611.188 1340.58 786.613 1309.96 867.504C1279.34 948.394 1383.85 1045.28 1492.54 1136.54C1601.23 1227.8 1559.05 1358.41 1574.71 1422.47Z" stroke="url(#paint13_linear_20_135)" stroke-opacity="0.5" stroke-width="10"/>
<path opacity="0.625" d="M1589.6 1425.26C1605.1 1489.36 1504.82 1706.8 1369.92 1891.25C1335.15 1891.54 1231.38 1883.33 1094.57 1848.21C923.545 1804.31 877.886 1649.76 712.474 1452.63C547.062 1255.5 614.377 1176.4 570.383 936.197C526.39 695.996 626.157 747.193 718.473 559.864C810.789 372.534 1139.73 284.139 1353.97 144.444C1568.22 4.75013 1738.31 129.629 1760.67 181.516C1783.03 233.403 1757.27 353.939 1719.33 411.67C1681.38 469.401 1584.38 534.612 1479.03 574.026C1373.67 613.44 1357.19 788.775 1326.42 869.548C1295.65 950.321 1399.82 1047.53 1508.17 1139.13C1616.53 1230.72 1574.1 1361.17 1589.6 1425.26Z" stroke="url(#paint14_linear_20_135)" stroke-opacity="0.5" stroke-width="10"/>
<path opacity="0.666667" d="M1604.49 1428.06C1619.83 1492.2 1519.16 1709.27 1383.99 1893.23C1349.25 1893.4 1245.63 1884.86 1109.05 1849.29C938.321 1804.84 893.069 1650.18 728.3 1452.55C563.53 1254.91 630.951 1176.05 587.56 935.759C544.17 695.466 643.706 746.978 736.35 559.991C828.993 373.005 1157.76 285.705 1372.08 146.743C1586.41 7.7798 1756.02 133.189 1778.24 185.139C1800.45 237.088 1774.45 357.514 1736.41 415.108C1698.37 472.703 1601.34 537.582 1496.01 576.643C1390.68 615.703 1373.82 790.947 1342.89 871.602C1311.97 952.257 1415.8 1049.79 1523.82 1141.72C1631.84 1233.65 1589.16 1363.93 1604.49 1428.06Z" stroke="url(#paint15_linear_20_135)" stroke-opacity="0.5" stroke-width="10"/>
<path opacity="0.708333" d="M1619.39 1430.87C1634.56 1495.04 1533.51 1711.73 1398.07 1895.21C1363.37 1895.27 1259.88 1886.39 1123.54 1850.39C953.111 1805.39 908.268 1650.6 744.142 1452.47C580.016 1254.34 647.542 1175.72 604.755 935.336C561.969 694.951 661.273 746.779 754.242 560.134C847.211 373.49 1175.8 287.285 1390.21 149.054C1604.61 10.8218 1773.74 136.761 1795.81 188.772C1817.88 240.783 1791.62 361.098 1753.5 418.556C1715.37 476.014 1618.29 540.562 1513 579.269C1407.7 617.977 1390.45 793.129 1359.38 873.665C1328.3 954.202 1431.78 1052.05 1539.47 1144.32C1647.16 1236.58 1604.23 1366.69 1619.39 1430.87Z" stroke="url(#paint16_linear_20_135)" stroke-opacity="0.5" stroke-width="10"/>
<path opacity="0.75" d="M1634.3 1433.67C1649.3 1497.88 1547.86 1714.2 1412.16 1897.2C1377.5 1897.14 1274.15 1887.93 1138.05 1851.49C967.917 1805.94 923.482 1651.04 760.001 1452.41C596.52 1253.79 664.151 1175.4 621.968 934.927C579.786 694.452 678.856 746.593 772.15 560.292C865.444 373.991 1193.86 288.879 1408.34 151.378C1622.81 13.8762 1791.46 140.342 1813.38 192.415C1835.31 244.487 1808.8 364.692 1770.59 422.013C1732.37 479.334 1635.26 543.551 1529.99 581.906C1424.72 620.261 1407.09 795.32 1375.87 875.738C1344.64 956.156 1447.78 1054.33 1555.13 1146.92C1662.49 1239.52 1619.3 1369.46 1634.3 1433.67Z" stroke="url(#paint17_linear_20_135)" stroke-opacity="0.5" stroke-width="10"/>
<path opacity="0.791667" d="M1649.22 1436.49C1664.05 1500.73 1562.23 1716.67 1426.26 1899.19C1391.64 1899.02 1288.43 1889.47 1152.57 1852.59C982.737 1806.49 938.712 1651.48 775.877 1452.36C613.043 1253.24 680.777 1175.1 639.199 934.531C597.62 693.968 696.457 746.423 790.074 560.465C883.691 374.506 1211.93 290.487 1426.47 153.715C1641.02 16.9427 1809.18 143.934 1830.96 196.068C1852.74 248.202 1825.99 368.295 1787.69 425.479C1749.38 482.664 1652.23 546.55 1547 584.553C1441.76 622.555 1423.75 797.521 1392.37 877.82C1361 958.12 1463.79 1056.61 1570.8 1149.54C1677.82 1242.47 1634.38 1372.24 1649.22 1436.49Z" stroke="url(#paint18_linear_20_135)" stroke-opacity="0.5" stroke-width="10"/>
<path opacity="0.833333" d="M1664.14 1439.31C1678.81 1503.59 1576.61 1719.15 1440.37 1901.19C1405.79 1900.9 1302.72 1891.02 1167.1 1853.7C997.572 1807.06 953.956 1651.94 791.77 1452.32C629.584 1252.71 697.42 1174.8 656.446 934.15C615.472 693.499 714.074 746.266 808.013 560.652C901.953 375.038 1230.01 292.108 1444.62 156.065C1659.24 20.0216 1826.91 147.537 1848.55 199.731C1870.18 251.926 1843.18 371.907 1804.79 428.955C1766.4 486.002 1669.21 549.558 1564.01 587.209C1458.8 624.86 1440.41 799.731 1408.88 879.912C1377.36 960.093 1479.8 1058.9 1586.48 1152.16C1693.16 1245.42 1649.47 1375.02 1664.14 1439.31Z" stroke="url(#paint19_linear_20_135)" stroke-opacity="0.5" stroke-width="10"/>
<path opacity="0.875" d="M1679.07 1442.13C1693.58 1506.44 1590.99 1721.63 1454.49 1903.18C1419.95 1902.79 1317.02 1892.57 1181.65 1854.82C1012.42 1807.63 969.216 1652.4 807.679 1452.3C646.143 1252.19 714.081 1174.52 673.712 933.783C633.342 693.046 731.707 746.125 825.968 560.855C920.228 375.584 1248.09 293.742 1462.78 158.428C1677.46 23.1129 1844.65 151.151 1866.13 203.405C1887.62 255.659 1860.38 375.529 1821.9 432.44C1783.42 489.35 1686.19 552.576 1581.03 589.876C1475.86 627.176 1457.08 801.952 1425.4 882.013C1393.73 962.075 1495.83 1061.19 1602.17 1154.78C1708.51 1248.38 1664.57 1377.81 1679.07 1442.13Z" stroke="url(#paint20_linear_20_135)" stroke-opacity="0.5" stroke-width="10"/>
<path opacity="0.916667" d="M1694.01 1444.96C1708.35 1509.31 1605.38 1724.11 1468.62 1905.19C1434.12 1904.68 1331.34 1894.12 1196.21 1855.94C1027.29 1808.21 984.491 1652.87 823.605 1452.28C662.72 1251.69 730.759 1174.25 690.995 933.43C651.23 692.609 749.358 745.998 843.938 561.072C938.519 376.146 1266.19 295.391 1480.94 160.804C1695.69 26.2165 1862.38 154.775 1883.73 207.089C1905.07 259.403 1877.57 379.16 1839.01 435.934C1800.44 492.707 1703.19 555.603 1598.05 592.552C1492.92 629.502 1473.76 804.182 1441.93 884.124C1410.11 964.067 1511.86 1063.5 1617.86 1157.42C1723.86 1251.34 1679.67 1380.61 1694.01 1444.96Z" stroke="url(#paint21_linear_20_135)" stroke-opacity="0.5" stroke-width="10"/>
<path opacity="0.958333" d="M1708.96 1447.79C1723.13 1512.17 1619.79 1726.6 1482.76 1907.2C1448.3 1906.58 1345.67 1895.69 1210.78 1857.07C1042.17 1808.8 999.781 1653.34 839.548 1452.27C679.315 1251.19 747.455 1173.99 708.295 933.091C669.135 692.187 767.025 745.887 861.924 561.305C956.823 376.724 1284.3 297.053 1499.11 163.193C1713.92 29.3325 1880.13 158.409 1901.32 210.783C1922.52 263.157 1894.78 382.8 1856.13 439.437C1817.47 496.074 1720.18 558.64 1615.09 595.239C1509.99 631.838 1490.44 806.422 1458.47 886.245C1426.5 966.068 1527.9 1065.81 1633.56 1160.06C1739.22 1254.31 1694.78 1383.4 1708.96 1447.79Z" stroke="url(#paint22_linear_20_135)" stroke-opacity="0.5" stroke-width="10"/>
<path d="M1723.91 1450.63C1737.92 1515.05 1634.2 1729.1 1496.91 1909.21C1462.5 1908.48 1360 1897.25 1225.36 1858.2C1057.06 1809.39 1015.09 1653.83 855.507 1452.27C695.928 1250.71 764.167 1173.75 725.612 932.766C687.057 691.782 784.708 745.79 879.925 561.553C975.141 377.317 1302.42 298.729 1517.29 165.595C1732.16 32.4609 1897.87 162.055 1918.92 214.487C1939.97 266.92 1911.99 386.45 1873.25 442.95C1834.51 499.45 1737.19 561.687 1632.13 597.936C1527.07 634.185 1507.14 808.671 1475.02 888.375C1442.91 968.078 1543.96 1068.13 1649.27 1162.71C1754.59 1257.28 1709.9 1386.21 1723.91 1450.63Z" stroke="url(#paint23_linear_20_135)" stroke-opacity="0.5" stroke-width="10"/>
<defs>
<linearGradient id="paint0_linear_20_135" x1="1439.66" y1="1736.95" x2="742.105" y2="277.982" gradientUnits="userSpaceOnUse">
<stop stop-color="#4ECDC4"/>
<stop offset="1" stop-color="#666666" stop-opacity="0"/>
</linearGradient>
<linearGradient id="paint1_linear_20_135" x1="1453.58" y1="1739.79" x2="760.106" y2="278.876" gradientUnits="userSpaceOnUse">
<stop stop-color="#4ECDC4"/>
<stop offset="1" stop-color="#666666" stop-opacity="0"/>
</linearGradient>
<linearGradient id="paint2_linear_20_135" x1="1467.52" y1="1742.63" x2="778.119" y2="279.783" gradientUnits="userSpaceOnUse">
<stop stop-color="#4ECDC4"/>
<stop offset="1" stop-color="#666666" stop-opacity="0"/>
</linearGradient>
<linearGradient id="paint3_linear_20_135" x1="1481.45" y1="1745.47" x2="796.146" y2="280.705" gradientUnits="userSpaceOnUse">
<stop stop-color="#4ECDC4"/>
<stop offset="1" stop-color="#666666" stop-opacity="0"/>
</linearGradient>
<linearGradient id="paint4_linear_20_135" x1="1495.4" y1="1748.31" x2="814.186" y2="281.64" gradientUnits="userSpaceOnUse">
<stop stop-color="#4ECDC4"/>
<stop offset="1" stop-color="#666666" stop-opacity="0"/>
</linearGradient>
<linearGradient id="paint5_linear_20_135" x1="1509.36" y1="1751.16" x2="832.239" y2="282.589" gradientUnits="userSpaceOnUse">
<stop stop-color="#4ECDC4"/>
<stop offset="1" stop-color="#666666" stop-opacity="0"/>
</linearGradient>
<linearGradient id="paint6_linear_20_135" x1="1523.32" y1="1754" x2="850.305" y2="283.553" gradientUnits="userSpaceOnUse">
<stop stop-color="#4ECDC4"/>
<stop offset="1" stop-color="#666666" stop-opacity="0"/>
</linearGradient>
<linearGradient id="paint7_linear_20_135" x1="1537.29" y1="1756.86" x2="868.383" y2="284.531" gradientUnits="userSpaceOnUse">
<stop stop-color="#4ECDC4"/>
<stop offset="1" stop-color="#666666" stop-opacity="0"/>
</linearGradient>
<linearGradient id="paint8_linear_20_135" x1="1551.27" y1="1759.71" x2="886.475" y2="285.522" gradientUnits="userSpaceOnUse">
<stop stop-color="#4ECDC4"/>
<stop offset="1" stop-color="#666666" stop-opacity="0"/>
</linearGradient>
<linearGradient id="paint9_linear_20_135" x1="1565.25" y1="1762.57" x2="904.58" y2="286.528" gradientUnits="userSpaceOnUse">
<stop stop-color="#4ECDC4"/>
<stop offset="1" stop-color="#666666" stop-opacity="0"/>
</linearGradient>
<linearGradient id="paint10_linear_20_135" x1="1579.24" y1="1765.43" x2="922.697" y2="287.548" gradientUnits="userSpaceOnUse">
<stop stop-color="#4ECDC4"/>
<stop offset="1" stop-color="#666666" stop-opacity="0"/>
</linearGradient>
<linearGradient id="paint11_linear_20_135" x1="1593.24" y1="1768.29" x2="940.827" y2="288.583" gradientUnits="userSpaceOnUse">
<stop stop-color="#4ECDC4"/>
<stop offset="1" stop-color="#666666" stop-opacity="0"/>
</linearGradient>
<linearGradient id="paint12_linear_20_135" x1="1607.25" y1="1771.15" x2="958.97" y2="289.631" gradientUnits="userSpaceOnUse">
<stop stop-color="#4ECDC4"/>
<stop offset="1" stop-color="#666666" stop-opacity="0"/>
</linearGradient>
<linearGradient id="paint13_linear_20_135" x1="1621.27" y1="1774.02" x2="977.125" y2="290.694" gradientUnits="userSpaceOnUse">
<stop stop-color="#4ECDC4"/>
<stop offset="1" stop-color="#666666" stop-opacity="0"/>
</linearGradient>
<linearGradient id="paint14_linear_20_135" x1="1635.29" y1="1776.89" x2="995.293" y2="291.772" gradientUnits="userSpaceOnUse">
<stop stop-color="#4ECDC4"/>
<stop offset="1" stop-color="#666666" stop-opacity="0"/>
</linearGradient>
<linearGradient id="paint15_linear_20_135" x1="1649.32" y1="1779.76" x2="1013.47" y2="292.863" gradientUnits="userSpaceOnUse">
<stop stop-color="#4ECDC4"/>
<stop offset="1" stop-color="#666666" stop-opacity="0"/>
</linearGradient>
<linearGradient id="paint16_linear_20_135" x1="1663.36" y1="1782.64" x2="1031.67" y2="293.97" gradientUnits="userSpaceOnUse">
<stop stop-color="#4ECDC4"/>
<stop offset="1" stop-color="#666666" stop-opacity="0"/>
</linearGradient>
<linearGradient id="paint17_linear_20_135" x1="1677.41" y1="1785.52" x2="1049.87" y2="295.09" gradientUnits="userSpaceOnUse">
<stop stop-color="#4ECDC4"/>
<stop offset="1" stop-color="#666666" stop-opacity="0"/>
</linearGradient>
<linearGradient id="paint18_linear_20_135" x1="1691.46" y1="1788.4" x2="1068.09" y2="296.226" gradientUnits="userSpaceOnUse">
<stop stop-color="#4ECDC4"/>
<stop offset="1" stop-color="#666666" stop-opacity="0"/>
</linearGradient>
<linearGradient id="paint19_linear_20_135" x1="1705.52" y1="1791.29" x2="1086.32" y2="297.375" gradientUnits="userSpaceOnUse">
<stop stop-color="#4ECDC4"/>
<stop offset="1" stop-color="#666666" stop-opacity="0"/>
</linearGradient>
<linearGradient id="paint20_linear_20_135" x1="1719.59" y1="1794.17" x2="1104.56" y2="298.54" gradientUnits="userSpaceOnUse">
<stop stop-color="#4ECDC4"/>
<stop offset="1" stop-color="#666666" stop-opacity="0"/>
</linearGradient>
<linearGradient id="paint21_linear_20_135" x1="1733.66" y1="1797.06" x2="1122.82" y2="299.719" gradientUnits="userSpaceOnUse">
<stop stop-color="#4ECDC4"/>
<stop offset="1" stop-color="#666666" stop-opacity="0"/>
</linearGradient>
<linearGradient id="paint22_linear_20_135" x1="1747.75" y1="1799.96" x2="1141.08" y2="300.913" gradientUnits="userSpaceOnUse">
<stop stop-color="#4ECDC4"/>
<stop offset="1" stop-color="#666666" stop-opacity="0"/>
</linearGradient>
<linearGradient id="paint23_linear_20_135" x1="1761.84" y1="1802.85" x2="1159.36" y2="302.121" gradientUnits="userSpaceOnUse">
<stop stop-color="#4ECDC4"/>
<stop offset="1" stop-color="#666666" stop-opacity="0"/>
</linearGradient>
</defs>
</svg>
