<svg width="1440" height="961" viewBox="0 0 1440 961" fill="none" xmlns="http://www.w3.org/2000/svg">
<path opacity="0.0416667" d="M408.376 1267.48C348.738 1275.49 176.633 1076.07 98.0348 975.363C158.391 882.405 288.901 671.016 328.091 569.124C377.079 441.76 424.503 472.551 537.152 399.041C649.801 325.53 921.418 509.04 1206.97 655.698C1492.53 802.356 1910.51 982.532 2033.09 1081.2C2155.67 1179.87 2150.35 1524.56 2075.34 1618.93C2000.33 1713.31 1616.86 1597.27 1557.36 1526.44C1497.85 1455.61 1319.43 1284.32 1282.03 1347.68C1244.64 1411.03 950.36 1213.4 853.124 1127.61C755.889 1041.83 701.396 1282.46 698.739 1365.39C696.082 1448.32 482.923 1257.46 408.376 1267.48Z" stroke="url(#paint0_linear_21_206)" stroke-width="10"/>
<path opacity="0.0833333" d="M397.228 1274.27C337.723 1282.75 164.647 1084.8 85.5463 984.771C145.252 891.394 274.292 679.105 312.807 576.966C360.951 449.292 408.496 479.693 520.54 405.34C632.583 330.987 904.934 512.251 1190.98 656.576C1477.03 800.9 1895.51 977.681 2018.52 1075.33C2141.53 1172.97 2138.31 1517.5 2063.98 1612.41C1989.66 1707.31 1606.02 1594.36 1546.17 1524.04C1486.32 1453.72 1307.1 1283.94 1270.15 1347.55C1233.19 1411.16 938.121 1215.96 840.5 1130.99C742.879 1046.02 689.928 1286.94 687.779 1369.84C685.63 1452.74 471.609 1263.67 397.228 1274.27Z" stroke="url(#paint1_linear_21_206)" stroke-width="10"/>
<path opacity="0.125" d="M386.055 1281.06C326.686 1290 152.65 1093.54 73.0535 994.182C132.106 900.391 259.67 687.213 297.509 584.831C344.807 456.853 392.469 486.862 503.901 411.672C615.333 336.482 888.4 515.499 1174.92 657.49C1461.44 799.481 1880.41 972.869 2003.83 1069.49C2127.26 1166.11 2126.15 1510.46 2052.5 1605.9C1978.85 1701.33 1595.08 1591.46 1534.88 1521.66C1474.69 1451.85 1294.69 1283.57 1258.18 1347.44C1221.66 1411.3 925.823 1218.54 827.824 1134.38C729.825 1050.23 678.415 1291.43 676.774 1374.29C675.133 1457.16 460.266 1269.88 386.055 1281.06Z" stroke="url(#paint2_linear_21_206)" stroke-width="10"/>
<path opacity="0.166667" d="M374.856 1287.85C315.627 1297.26 140.644 1102.27 60.5564 1003.6C118.953 909.396 245.035 695.338 282.196 592.718C328.646 464.443 376.423 494.06 487.236 418.038C598.05 342.015 871.815 518.784 1158.79 658.442C1445.76 798.1 1865.18 968.097 1989.02 1063.69C2112.86 1159.29 2113.84 1503.45 2040.89 1599.41C1967.93 1695.37 1584.03 1588.58 1523.5 1519.28C1462.96 1449.99 1282.2 1283.22 1246.13 1347.34C1210.06 1411.45 913.468 1221.12 815.097 1137.79C716.726 1054.45 666.859 1295.91 665.726 1378.75C664.592 1461.58 448.892 1276.1 374.856 1287.85Z" stroke="url(#paint3_linear_21_206)" stroke-width="10"/>
<path opacity="0.208333" d="M363.631 1294.64C304.546 1304.51 128.628 1111 48.0551 1013.02C105.792 918.41 230.387 703.483 266.868 600.628C312.469 472.061 360.356 501.286 470.546 424.437C580.735 347.587 855.181 522.106 1142.59 659.432C1430 796.758 1849.84 963.365 1974.09 1057.93C2098.33 1152.5 2101.41 1496.46 2029.14 1592.94C1956.87 1689.42 1572.89 1585.7 1512.02 1516.92C1451.15 1448.14 1269.63 1282.89 1234 1347.25C1198.37 1411.62 901.055 1223.72 802.318 1141.21C703.582 1058.69 655.26 1300.41 654.633 1383.2C654.005 1466 437.488 1282.31 363.631 1294.64Z" stroke="url(#paint4_linear_21_206)" stroke-width="10"/>
<path opacity="0.25" d="M352.381 1301.43C293.442 1311.76 116.602 1119.74 35.5496 1022.44C92.6248 927.431 215.725 711.645 251.525 608.562C296.275 479.707 344.271 508.54 453.83 430.869C563.388 353.197 838.496 525.466 1126.32 660.461C1414.14 795.455 1834.39 958.675 1959.03 1052.22C2083.67 1145.76 2088.84 1489.5 2017.27 1586.49C1945.7 1683.49 1561.64 1582.84 1500.44 1514.58C1439.24 1446.31 1256.98 1282.58 1221.8 1347.18C1186.61 1411.79 888.584 1226.34 789.489 1144.64C690.394 1062.94 643.617 1304.91 643.496 1387.66C643.375 1470.41 426.054 1288.53 352.381 1301.43Z" stroke="url(#paint5_linear_21_206)" stroke-width="10"/>
<path opacity="0.291667" d="M341.105 1308.22C282.317 1319 104.567 1128.48 23.0399 1031.86C79.4505 936.461 201.051 719.826 236.168 616.518C280.065 487.382 328.166 515.824 437.088 437.335C546.01 358.846 821.762 528.864 1109.98 661.528C1398.21 794.192 1818.83 954.027 1943.85 1046.54C2068.88 1139.05 2076.14 1482.57 2005.27 1580.07C1934.39 1677.57 1550.29 1579.99 1488.76 1512.25C1427.24 1444.5 1244.25 1282.28 1209.51 1347.13C1174.78 1411.98 876.055 1228.96 776.608 1148.09C677.161 1067.21 631.931 1309.41 632.315 1392.12C632.7 1474.83 414.591 1294.75 341.105 1308.22Z" stroke="url(#paint6_linear_21_206)" stroke-width="10"/>
<path opacity="0.333333" d="M329.804 1315.01C271.17 1326.25 92.521 1137.21 10.5261 1041.29C66.2692 945.499 186.364 728.026 220.798 624.497C263.84 495.087 312.042 523.135 420.322 443.835C528.601 364.534 804.98 532.3 1093.58 662.634C1382.18 792.969 1803.15 949.422 1928.55 1040.91C2053.96 1132.39 2063.31 1475.67 1993.14 1573.67C1922.96 1671.68 1538.84 1577.16 1476.99 1509.93C1415.14 1442.7 1231.44 1282.01 1197.15 1347.09C1162.86 1412.18 863.469 1231.6 763.676 1151.55C663.884 1071.5 620.202 1313.92 621.091 1396.58C621.98 1479.24 403.097 1300.97 329.804 1315.01Z" stroke="url(#paint7_linear_21_206)" stroke-width="10"/>
<path opacity="0.375" d="M318.478 1321.8C260 1333.49 80.4658 1145.96 -1.99183 1050.73C53.0812 954.545 171.664 736.245 205.413 632.5C247.598 502.819 295.899 530.476 403.53 450.368C511.161 370.261 788.148 535.775 1077.11 663.781C1366.07 791.787 1787.36 944.862 1913.13 1035.32C2038.91 1125.77 2050.34 1468.8 1980.88 1567.3C1911.41 1665.8 1527.29 1574.34 1465.12 1507.64C1402.96 1440.93 1218.55 1281.75 1184.71 1347.07C1150.87 1412.39 850.825 1234.25 750.694 1155.02C650.563 1075.8 608.43 1318.43 609.823 1401.05C611.216 1483.66 391.574 1307.19 318.478 1321.8Z" stroke="url(#paint8_linear_21_206)" stroke-width="10"/>
<path opacity="0.416667" d="M307.126 1328.59C248.809 1340.73 68.4008 1154.7 -14.5139 1060.16C39.8863 963.6 156.952 744.483 190.014 640.527C231.341 510.582 279.738 537.846 386.714 456.937C493.691 376.027 771.267 539.289 1060.57 664.968C1349.87 790.647 1771.46 940.346 1897.59 1029.77C2023.73 1119.19 2037.25 1461.96 1968.49 1560.95C1899.73 1659.95 1515.64 1571.54 1453.16 1505.36C1390.68 1439.17 1205.58 1281.52 1172.19 1347.07C1138.8 1412.62 838.124 1236.92 737.661 1158.52C637.198 1080.11 596.615 1322.96 598.511 1405.52C600.408 1488.08 380.021 1313.42 307.126 1328.59Z" stroke="url(#paint9_linear_21_206)" stroke-width="10"/>
<path opacity="0.458333" d="M295.748 1335.38C237.596 1347.97 56.3261 1163.44 -27.04 1069.6C26.6848 972.663 142.228 752.739 174.602 648.576C215.069 518.373 263.558 545.245 369.874 463.539C476.19 381.833 754.339 542.842 1043.97 666.196C1333.59 789.55 1755.45 935.877 1881.93 1024.27C2008.42 1112.66 2024.02 1455.15 1955.97 1554.63C1887.93 1654.12 1503.89 1568.76 1441.1 1503.09C1378.31 1437.43 1192.52 1281.3 1159.59 1347.08C1126.66 1412.86 825.367 1239.6 724.578 1162.02C623.79 1084.44 584.756 1327.49 587.156 1409.99C589.556 1492.49 368.438 1319.65 295.748 1335.38Z" stroke="url(#paint10_linear_21_206)" stroke-width="10"/>
<path opacity="0.5" d="M284.346 1342.18C226.361 1355.21 44.2416 1172.19 -39.5701 1079.05C13.4766 981.735 127.491 761.015 159.176 656.65C198.782 526.193 247.361 552.674 353.01 470.176C458.659 387.679 737.362 546.436 1027.3 667.465C1317.23 788.495 1739.32 931.454 1866.16 1018.81C1992.99 1106.17 2010.66 1448.37 1943.33 1548.34C1876 1648.31 1492.03 1566 1428.94 1500.85C1365.85 1435.71 1179.39 1281.11 1146.92 1347.12C1114.44 1413.12 812.553 1242.3 711.445 1165.55C610.338 1088.79 572.856 1332.02 575.757 1414.47C578.659 1496.91 356.826 1325.88 284.346 1342.18Z" stroke="url(#paint11_linear_21_206)" stroke-width="10"/>
<path opacity="0.541667" d="M272.918 1348.97C215.104 1362.45 32.1475 1180.94 -52.1042 1088.5C0.261802 990.815 112.742 769.309 143.737 664.747C182.48 534.043 231.145 560.131 336.121 476.848C441.098 393.565 720.338 550.069 1010.56 668.777C1300.78 787.484 1723.09 927.078 1850.26 1013.41C1977.43 1099.73 1997.17 1441.63 1930.56 1542.08C1863.95 1642.53 1480.08 1563.25 1416.69 1498.63C1353.29 1434.01 1166.19 1280.94 1134.16 1347.17C1102.14 1413.4 799.682 1245.02 698.262 1169.09C596.842 1093.16 560.912 1336.57 564.315 1418.95C567.719 1501.33 345.184 1332.11 272.918 1348.97Z" stroke="url(#paint12_linear_21_206)" stroke-width="10"/>
<path opacity="0.583333" d="M261.464 1355.76C203.826 1369.69 20.0438 1189.69 -64.6423 1097.95C-12.9595 999.904 97.9818 777.624 128.285 672.867C166.163 541.922 214.911 567.619 319.21 483.555C423.508 399.492 703.267 553.744 993.757 670.131C1284.25 786.518 1706.74 922.751 1834.24 1008.05C1961.74 1093.34 1983.56 1434.93 1917.67 1535.85C1851.78 1636.77 1468.03 1560.52 1404.34 1496.43C1340.65 1432.33 1152.9 1280.8 1121.33 1347.25C1089.77 1413.69 786.755 1247.75 685.029 1172.65C583.304 1097.55 548.926 1341.12 552.83 1423.44C556.734 1505.76 333.513 1338.35 261.464 1355.76Z" stroke="url(#paint13_linear_21_206)" stroke-width="10"/>
<path opacity="0.625" d="M249.986 1362.56C192.525 1376.93 7.93051 1198.44 -77.1843 1107.4C-26.1873 1009 83.2093 785.957 112.819 681.012C149.832 549.831 198.66 575.136 302.274 490.297C405.889 405.458 686.149 557.459 976.89 671.528C1267.63 785.597 1690.29 918.473 1818.11 1002.73C1945.93 1087 1969.81 1428.26 1904.65 1529.64C1839.49 1631.03 1455.88 1557.82 1391.9 1494.25C1327.91 1430.68 1139.53 1280.68 1108.43 1347.34C1077.32 1414 773.771 1250.5 671.747 1176.22C569.722 1101.95 536.897 1345.68 541.302 1427.93C545.706 1510.18 321.812 1344.59 249.986 1362.56Z" stroke="url(#paint14_linear_21_206)" stroke-width="10"/>
<path opacity="0.666667" d="M238.483 1369.35C181.203 1384.17 -4.1924 1207.2 -89.7302 1116.86C-39.4214 1018.11 68.4252 794.309 97.3413 689.181C133.486 557.77 182.391 582.682 285.316 497.074C388.241 411.466 668.984 561.215 959.958 672.968C1250.93 784.721 1673.72 914.245 1801.86 997.473C1929.99 1080.7 1955.93 1421.62 1891.5 1523.47C1827.07 1625.32 1443.63 1555.13 1379.36 1492.09C1315.09 1429.05 1126.09 1280.58 1095.44 1347.45C1064.8 1414.33 760.732 1253.26 658.415 1179.82C556.098 1106.37 524.827 1350.25 529.73 1432.43C534.634 1514.61 310.082 1350.84 238.483 1369.35Z" stroke="url(#paint15_linear_21_206)" stroke-width="10"/>
<path opacity="0.708333" d="M226.954 1376.15C169.859 1391.41 -16.3249 1215.96 -102.28 1126.33C-52.6619 1027.22 53.6296 802.681 81.8506 697.373C117.127 565.738 166.106 590.259 268.335 503.887C370.565 417.514 651.773 565.013 942.961 674.452C1234.15 783.891 1657.05 910.067 1785.49 992.262C1913.92 1074.46 1941.93 1415.03 1878.23 1517.34C1814.53 1619.65 1431.28 1552.47 1366.73 1489.95C1302.17 1427.44 1112.56 1280.51 1082.38 1347.59C1052.2 1414.68 747.637 1256.05 645.034 1183.43C542.431 1110.81 512.714 1354.83 518.116 1436.93C523.518 1519.04 298.323 1357.09 226.954 1376.15Z" stroke="url(#paint16_linear_21_206)" stroke-width="10"/>
<path opacity="0.75" d="M215.401 1382.95C158.494 1398.65 -28.4668 1224.72 -114.834 1135.8C-65.9087 1036.34 38.8226 811.073 66.3474 705.59C100.754 573.736 149.803 597.866 251.331 510.735C352.86 423.604 634.516 568.853 925.901 675.981C1217.29 783.109 1640.27 905.942 1769 987.103C1897.73 1068.26 1927.79 1408.47 1864.83 1511.23C1801.87 1613.99 1418.84 1549.82 1354 1487.84C1289.17 1425.85 1098.97 1280.46 1069.25 1347.75C1039.52 1415.04 734.486 1258.85 631.604 1187.06C528.721 1115.27 500.559 1359.41 506.458 1441.44C512.358 1523.47 286.534 1363.34 215.401 1382.95Z" stroke="url(#paint17_linear_21_206)" stroke-width="10"/>
<path opacity="0.791667" d="M203.822 1389.76C147.107 1405.88 -40.6182 1233.48 -127.391 1145.27C-79.1617 1045.48 24.0044 819.485 50.8319 713.831C84.3664 581.764 133.484 605.503 234.305 517.619C335.127 429.735 617.213 572.735 908.776 677.554C1200.34 782.373 1623.38 901.869 1752.4 981.996C1881.42 1062.12 1913.53 1401.96 1851.31 1505.17C1789.08 1608.37 1406.29 1547.21 1341.18 1485.75C1276.07 1424.29 1085.29 1280.44 1056.03 1347.93C1026.78 1415.43 721.28 1261.67 618.125 1190.71C514.969 1119.75 488.362 1364.01 494.758 1445.96C501.155 1527.91 274.716 1369.6 203.822 1389.76Z" stroke="url(#paint18_linear_21_206)" stroke-width="10"/>
<path opacity="0.833333" d="M192.219 1396.56C135.698 1413.12 -52.7792 1242.25 -139.952 1154.74C-92.4208 1054.62 9.175 827.916 35.3043 722.096C67.9659 589.822 117.148 613.17 217.257 524.539C317.367 435.907 599.865 576.659 891.589 679.173C1183.31 781.686 1606.39 897.849 1735.68 976.943C1864.98 1056.04 1899.14 1395.49 1837.66 1499.13C1776.18 1602.78 1393.65 1544.61 1328.27 1483.69C1262.89 1422.76 1071.53 1280.44 1042.74 1348.14C1013.96 1415.83 708.018 1264.51 604.597 1194.38C501.176 1124.25 476.123 1368.62 483.016 1450.48C489.908 1532.35 262.87 1375.86 192.219 1396.56Z" stroke="url(#paint19_linear_21_206)" stroke-width="10"/>
<path opacity="0.875" d="M180.59 1403.37C124.267 1420.36 -64.9495 1251.02 -152.518 1164.22C-105.686 1063.77 -5.6653 836.366 19.7647 730.386C51.5522 597.91 100.796 620.868 200.187 531.494C299.579 442.121 582.473 580.627 874.339 680.837C1166.2 781.048 1589.28 893.884 1718.85 971.943C1848.42 1050 1884.63 1389.05 1823.89 1493.14C1763.15 1597.22 1380.91 1542.04 1315.27 1481.65C1249.62 1421.25 1057.7 1280.48 1029.38 1348.37C1001.06 1416.26 694.702 1267.37 591.021 1198.07C487.34 1128.77 463.842 1373.23 471.231 1455.01C478.619 1536.8 250.994 1382.13 180.59 1403.37Z" stroke="url(#paint20_linear_21_206)" stroke-width="10"/>
<path opacity="0.916667" d="M168.937 1410.18C112.815 1427.6 -77.1292 1259.79 -165.086 1173.7C-118.957 1072.93 -20.5164 844.837 4.2133 738.7C35.1255 606.029 84.4273 628.596 183.096 538.486C281.765 448.377 565.035 584.638 857.026 682.548C1149.02 780.459 1572.07 889.973 1701.91 966.998C1831.74 1044.02 1869.98 1382.67 1810 1487.18C1750.01 1591.7 1368.08 1539.5 1302.17 1479.64C1236.26 1419.77 1043.79 1280.54 1015.94 1348.62C988.091 1416.71 681.331 1270.24 577.396 1201.77C473.462 1133.3 451.521 1377.86 459.403 1459.55C467.285 1541.25 239.089 1388.4 168.937 1410.18Z" stroke="url(#paint21_linear_21_206)" stroke-width="10"/>
<path opacity="0.958333" d="M157.259 1416.99C101.342 1434.85 -89.3183 1268.56 -177.659 1183.19C-132.234 1082.09 -35.3783 853.328 -11.3497 747.039C18.6859 614.178 68.0432 636.355 165.983 545.515C263.923 454.676 547.554 588.693 839.651 684.306C1131.75 779.92 1554.76 886.118 1684.85 962.11C1814.94 1038.1 1855.22 1376.32 1795.98 1481.26C1736.75 1586.2 1355.14 1536.98 1288.98 1477.65C1222.81 1418.32 1029.81 1280.63 1002.43 1348.9C975.048 1417.18 667.905 1273.14 563.724 1205.5C459.543 1137.86 439.157 1382.5 447.533 1464.1C455.909 1545.7 227.156 1394.68 157.259 1416.99Z" stroke="url(#paint22_linear_21_206)" stroke-width="10"/>
<path d="M145.557 1423.81C89.8472 1442.09 -101.517 1277.34 -190.235 1192.68C-145.517 1091.27 -50.2506 861.838 -26.9242 755.402C2.23375 622.357 51.6434 644.144 148.85 552.58C246.056 461.016 530.028 592.791 822.214 686.111C1114.4 779.431 1537.34 882.32 1667.68 957.278C1798.01 1032.24 1840.32 1370.02 1781.84 1475.38C1723.36 1580.74 1342.12 1534.49 1275.69 1475.69C1209.27 1416.9 1015.75 1280.74 988.841 1349.21C961.931 1417.67 654.425 1276.06 550.004 1209.25C445.583 1142.44 426.753 1387.15 435.621 1468.65C444.49 1550.16 215.194 1400.97 145.557 1423.81Z" stroke="url(#paint23_linear_21_206)" stroke-width="10"/>
<defs>
<linearGradient id="paint0_linear_21_206" x1="878.213" y1="1585.83" x2="1452.36" y2="701.55" gradientUnits="userSpaceOnUse">
<stop stop-color="#4ECDC4"/>
<stop offset="1" stop-color="#666666" stop-opacity="0"/>
</linearGradient>
<linearGradient id="paint1_linear_21_206" x1="868.342" y1="1588.74" x2="1436.3" y2="700.47" gradientUnits="userSpaceOnUse">
<stop stop-color="#4ECDC4"/>
<stop offset="1" stop-color="#666666" stop-opacity="0"/>
</linearGradient>
<linearGradient id="paint2_linear_21_206" x1="858.413" y1="1591.64" x2="1420.16" y2="699.431" gradientUnits="userSpaceOnUse">
<stop stop-color="#4ECDC4"/>
<stop offset="1" stop-color="#666666" stop-opacity="0"/>
</linearGradient>
<linearGradient id="paint3_linear_21_206" x1="848.428" y1="1594.54" x2="1403.93" y2="698.432" gradientUnits="userSpaceOnUse">
<stop stop-color="#4ECDC4"/>
<stop offset="1" stop-color="#666666" stop-opacity="0"/>
</linearGradient>
<linearGradient id="paint4_linear_21_206" x1="838.385" y1="1597.44" x2="1387.62" y2="697.474" gradientUnits="userSpaceOnUse">
<stop stop-color="#4ECDC4"/>
<stop offset="1" stop-color="#666666" stop-opacity="0"/>
</linearGradient>
<linearGradient id="paint5_linear_21_206" x1="828.286" y1="1600.34" x2="1371.22" y2="696.558" gradientUnits="userSpaceOnUse">
<stop stop-color="#4ECDC4"/>
<stop offset="1" stop-color="#666666" stop-opacity="0"/>
</linearGradient>
<linearGradient id="paint6_linear_21_206" x1="818.13" y1="1603.23" x2="1354.75" y2="695.685" gradientUnits="userSpaceOnUse">
<stop stop-color="#4ECDC4"/>
<stop offset="1" stop-color="#666666" stop-opacity="0"/>
</linearGradient>
<linearGradient id="paint7_linear_21_206" x1="807.918" y1="1606.13" x2="1338.18" y2="694.855" gradientUnits="userSpaceOnUse">
<stop stop-color="#4ECDC4"/>
<stop offset="1" stop-color="#666666" stop-opacity="0"/>
</linearGradient>
<linearGradient id="paint8_linear_21_206" x1="797.649" y1="1609.02" x2="1321.54" y2="694.069" gradientUnits="userSpaceOnUse">
<stop stop-color="#4ECDC4"/>
<stop offset="1" stop-color="#666666" stop-opacity="0"/>
</linearGradient>
<linearGradient id="paint9_linear_21_206" x1="787.323" y1="1611.91" x2="1304.82" y2="693.328" gradientUnits="userSpaceOnUse">
<stop stop-color="#4ECDC4"/>
<stop offset="1" stop-color="#666666" stop-opacity="0"/>
</linearGradient>
<linearGradient id="paint10_linear_21_206" x1="776.941" y1="1614.81" x2="1288.01" y2="692.631" gradientUnits="userSpaceOnUse">
<stop stop-color="#4ECDC4"/>
<stop offset="1" stop-color="#666666" stop-opacity="0"/>
</linearGradient>
<linearGradient id="paint11_linear_21_206" x1="766.503" y1="1617.7" x2="1271.12" y2="691.98" gradientUnits="userSpaceOnUse">
<stop stop-color="#4ECDC4"/>
<stop offset="1" stop-color="#666666" stop-opacity="0"/>
</linearGradient>
<linearGradient id="paint12_linear_21_206" x1="756.009" y1="1620.6" x2="1254.15" y2="691.375" gradientUnits="userSpaceOnUse">
<stop stop-color="#4ECDC4"/>
<stop offset="1" stop-color="#666666" stop-opacity="0"/>
</linearGradient>
<linearGradient id="paint13_linear_21_206" x1="745.459" y1="1623.49" x2="1237.1" y2="690.818" gradientUnits="userSpaceOnUse">
<stop stop-color="#4ECDC4"/>
<stop offset="1" stop-color="#666666" stop-opacity="0"/>
</linearGradient>
<linearGradient id="paint14_linear_21_206" x1="734.852" y1="1626.39" x2="1219.97" y2="690.307" gradientUnits="userSpaceOnUse">
<stop stop-color="#4ECDC4"/>
<stop offset="1" stop-color="#666666" stop-opacity="0"/>
</linearGradient>
<linearGradient id="paint15_linear_21_206" x1="724.19" y1="1629.29" x2="1202.76" y2="689.845" gradientUnits="userSpaceOnUse">
<stop stop-color="#4ECDC4"/>
<stop offset="1" stop-color="#666666" stop-opacity="0"/>
</linearGradient>
<linearGradient id="paint16_linear_21_206" x1="713.472" y1="1632.2" x2="1185.47" y2="689.432" gradientUnits="userSpaceOnUse">
<stop stop-color="#4ECDC4"/>
<stop offset="1" stop-color="#666666" stop-opacity="0"/>
</linearGradient>
<linearGradient id="paint17_linear_21_206" x1="702.699" y1="1635.11" x2="1168.11" y2="689.068" gradientUnits="userSpaceOnUse">
<stop stop-color="#4ECDC4"/>
<stop offset="1" stop-color="#666666" stop-opacity="0"/>
</linearGradient>
<linearGradient id="paint18_linear_21_206" x1="691.869" y1="1638.02" x2="1150.66" y2="688.754" gradientUnits="userSpaceOnUse">
<stop stop-color="#4ECDC4"/>
<stop offset="1" stop-color="#666666" stop-opacity="0"/>
</linearGradient>
<linearGradient id="paint19_linear_21_206" x1="680.985" y1="1640.94" x2="1133.14" y2="688.49" gradientUnits="userSpaceOnUse">
<stop stop-color="#4ECDC4"/>
<stop offset="1" stop-color="#666666" stop-opacity="0"/>
</linearGradient>
<linearGradient id="paint20_linear_21_206" x1="670.045" y1="1643.86" x2="1115.54" y2="688.277" gradientUnits="userSpaceOnUse">
<stop stop-color="#4ECDC4"/>
<stop offset="1" stop-color="#666666" stop-opacity="0"/>
</linearGradient>
<linearGradient id="paint21_linear_21_206" x1="659.049" y1="1646.78" x2="1097.86" y2="688.116" gradientUnits="userSpaceOnUse">
<stop stop-color="#4ECDC4"/>
<stop offset="1" stop-color="#666666" stop-opacity="0"/>
</linearGradient>
<linearGradient id="paint22_linear_21_206" x1="647.999" y1="1649.71" x2="1080.11" y2="688.008" gradientUnits="userSpaceOnUse">
<stop stop-color="#4ECDC4"/>
<stop offset="1" stop-color="#666666" stop-opacity="0"/>
</linearGradient>
<linearGradient id="paint23_linear_21_206" x1="636.894" y1="1652.65" x2="1062.28" y2="687.952" gradientUnits="userSpaceOnUse">
<stop stop-color="#4ECDC4"/>
<stop offset="1" stop-color="#666666" stop-opacity="0"/>
</linearGradient>
</defs>
</svg>
