<svg width="873" height="1734" viewBox="0 0 873 1734" fill="none" xmlns="http://www.w3.org/2000/svg">
<path opacity="0.0416667" d="M-340.527 557.091C-373.973 654.903 -330.197 900.086 -215.54 1101.97C-199.206 1228.76 -153.357 1459.71 -100.631 1369.16C-34.7234 1255.97 130.543 1059.67 239.424 1017.31C348.304 974.96 399.469 520.563 206.378 574.724C13.2866 628.885 127.147 240.671 105.027 60.6716C82.9062 -119.328 -90.1011 125.495 -148.371 188.042C-206.642 250.589 -307.08 459.278 -340.527 557.091Z" stroke="url(#paint0_linear_20_109)" stroke-opacity="0.4" stroke-width="10"/>
<path opacity="0.0833333" d="M-340.784 558.918C-375.563 656.111 -335.149 901.557 -223.27 1104.78C-208.674 1231.62 -165.991 1462.88 -112.034 1373.21C-44.588 1261.13 123.339 1067.46 232.783 1026.71C342.226 985.971 399.599 532.97 205.797 584.305C11.9937 635.64 131.148 249.614 111.494 69.5644C91.8389 -110.485 -84.4916 131.517 -143.609 193.144C-202.726 254.77 -306.005 461.725 -340.784 558.918Z" stroke="url(#paint1_linear_20_109)" stroke-opacity="0.4" stroke-width="10"/>
<path opacity="0.125" d="M-341.102 560.887C-377.203 657.443 -340.149 903.106 -231.065 1107.62C-218.203 1234.48 -178.687 1466.02 -123.514 1377.25C-54.5469 1266.29 116 1075.29 225.982 1036.17C335.965 997.044 399.518 545.522 205.045 594.022C10.5712 642.521 134.981 258.757 117.789 78.6903C100.597 -101.376 -79.0114 137.761 -138.961 198.456C-198.911 259.15 -305 464.331 -341.102 560.887Z" stroke="url(#paint2_linear_20_109)" stroke-opacity="0.4" stroke-width="10"/>
<path opacity="0.166667" d="M-341.483 562.997C-378.896 658.898 -345.199 904.732 -238.924 1110.51C-227.795 1237.37 -191.444 1469.13 -135.069 1381.27C-64.6003 1271.46 108.524 1083.18 219.021 1045.68C329.519 1008.18 399.222 558.216 204.12 603.872C9.01725 649.528 138.642 268.096 123.91 88.0461C109.178 -92.0039 -73.6637 144.225 -134.431 203.976C-195.199 263.727 -304.07 467.097 -341.483 562.997Z" stroke="url(#paint3_linear_20_109)" stroke-opacity="0.4" stroke-width="10"/>
<path opacity="0.208333" d="M-341.929 565.247C-380.642 660.475 -350.301 906.434 -246.848 1113.43C-237.45 1240.26 -204.263 1472.21 -146.701 1385.29C-74.7481 1276.64 100.911 1091.1 211.9 1055.23C322.889 1019.36 398.71 571.05 203.02 613.854C7.33038 656.657 142.129 277.629 129.853 97.629C117.577 -82.3706 -68.4511 150.905 -130.022 209.702C-191.593 268.499 -303.216 470.02 -341.929 565.247Z" stroke="url(#paint4_linear_20_109)" stroke-opacity="0.4" stroke-width="10"/>
<path opacity="0.25" d="M-342.442 567.636C-382.443 662.173 -355.455 908.212 -254.838 1116.39C-247.167 1243.18 -217.143 1475.26 -158.408 1389.29C-84.9906 1281.82 93.16 1099.06 204.617 1064.83C316.073 1030.6 397.981 584.019 201.745 623.964C5.50867 663.908 145.44 287.352 135.615 107.436C125.79 -72.4795 -63.3769 157.801 -125.737 215.633C-188.096 273.465 -302.441 473.099 -342.442 567.636Z" stroke="url(#paint5_linear_20_109)" stroke-opacity="0.4" stroke-width="10"/>
<path opacity="0.291667" d="M-343.023 570.162C-384.302 663.991 -360.662 910.064 -262.893 1119.38C-256.947 1246.1 -230.082 1478.28 -170.191 1393.27C-95.3277 1287.01 85.2715 1107.06 197.171 1074.48C309.071 1041.89 397.031 597.121 200.291 634.199C3.55072 671.277 148.571 297.264 141.194 117.465C133.816 -62.3337 -58.4437 164.909 -121.577 221.765C-184.71 278.622 -301.745 476.333 -343.023 570.162Z" stroke="url(#paint6_linear_20_109)" stroke-opacity="0.4" stroke-width="10"/>
<path opacity="0.333333" d="M-343.675 572.825C-386.218 665.928 -365.923 911.99 -271.016 1122.41C-266.791 1249.03 -243.082 1481.27 -182.05 1397.24C-105.76 1292.2 77.2444 1115.1 189.564 1084.16C301.883 1053.23 395.861 610.352 198.658 644.558C1.45479 678.763 151.521 307.361 146.585 127.712C141.649 -51.9363 -53.6547 172.227 -117.547 228.098C-181.438 283.968 -301.132 479.721 -343.675 572.825Z" stroke="url(#paint7_linear_20_109)" stroke-opacity="0.4" stroke-width="10"/>
<path opacity="0.375" d="M-344.4 575.622C-388.195 667.984 -371.24 913.988 -279.205 1125.47C-276.697 1251.98 -256.142 1484.22 -193.984 1401.19C-116.286 1297.39 69.0784 1123.17 181.792 1093.89C294.506 1064.61 394.467 623.71 196.843 655.037C-0.780556 686.364 154.287 317.641 151.787 138.175C149.287 -41.2899 -49.0125 179.753 -113.648 234.628C-178.283 289.503 -300.604 483.261 -344.4 575.622Z" stroke="url(#paint8_linear_20_109)" stroke-opacity="0.4" stroke-width="10"/>
<path opacity="0.416667" d="M-345.198 578.554C-390.234 670.157 -376.612 916.059 -287.462 1128.57C-286.667 1254.93 -269.26 1487.15 -205.992 1405.12C-126.907 1302.59 60.7731 1131.27 173.858 1103.65C286.942 1076.04 392.848 637.189 194.845 665.633C-3.15691 694.077 156.867 328.1 156.797 148.851C156.726 -30.3982 -44.5198 187.485 -109.883 241.354C-175.246 295.223 -300.162 486.952 -345.198 578.554Z" stroke="url(#paint9_linear_20_109)" stroke-opacity="0.4" stroke-width="10"/>
<path opacity="0.458333" d="M-346.073 581.618C-392.336 672.445 -382.042 918.2 -295.786 1131.7C-296.7 1257.89 -282.437 1490.03 -218.075 1409.03C-137.624 1307.78 52.3278 1139.4 165.758 1113.45C279.189 1087.5 391.002 650.788 192.663 676.344C-5.67587 701.9 159.257 338.735 161.61 159.736C163.964 -19.2643 -40.1797 195.421 -106.256 248.274C-172.331 301.128 -299.809 490.792 -346.073 581.618Z" stroke="url(#paint10_linear_20_109)" stroke-opacity="0.4" stroke-width="10"/>
<path opacity="0.5" d="M-347.025 584.814C-394.503 674.849 -387.53 920.412 -304.179 1134.85C-306.797 1260.86 -295.672 1492.89 -230.233 1412.93C-148.434 1312.98 43.7426 1147.57 157.495 1123.28C271.247 1099 388.929 664.502 190.295 687.167C-8.33863 709.831 161.457 349.545 166.226 170.826C170.996 -7.89163 -35.9945 203.556 -102.767 255.385C-169.54 307.214 -299.547 494.779 -347.025 584.814Z" stroke="url(#paint11_linear_20_109)" stroke-opacity="0.4" stroke-width="10"/>
<path opacity="0.541667" d="M-348.057 588.14C-396.737 677.366 -393.078 922.692 -312.641 1138.04C-316.957 1263.84 -308.965 1495.71 -242.465 1416.8C-159.34 1318.16 35.0168 1155.75 149.066 1133.14C263.116 1110.53 386.626 678.329 187.74 698.098C-11.1468 717.868 163.462 360.524 170.641 182.121C177.82 3.71688 -31.9672 211.89 -99.4211 262.685C-166.875 313.48 -299.377 498.913 -348.057 588.14Z" stroke="url(#paint12_linear_20_109)" stroke-opacity="0.4" stroke-width="10"/>
<path opacity="0.583333" d="M-349.17 591.594C-399.038 679.997 -398.685 925.041 -321.171 1141.26C-327.181 1266.82 -322.314 1498.49 -254.77 1420.65C-170.34 1323.35 26.1501 1163.96 140.472 1143.03C254.794 1122.09 384.093 692.264 184.995 709.136C-14.1017 726.008 165.272 371.672 174.852 193.615C184.432 15.5579 -28.1002 220.419 -96.2195 270.172C-164.339 319.924 -299.301 503.192 -349.17 591.594Z" stroke="url(#paint13_linear_20_109)" stroke-opacity="0.4" stroke-width="10"/>
<path opacity="0.625" d="M-350.365 595.176C-401.409 682.739 -404.353 927.457 -329.771 1144.5C-337.469 1269.81 -335.721 1501.23 -267.149 1424.47C-181.434 1328.52 17.1424 1172.19 131.712 1152.94C246.283 1133.69 381.326 706.305 182.061 720.277C-17.2047 734.25 166.884 382.984 178.857 205.306C190.831 27.6278 -24.3962 229.142 -93.1649 277.842C-161.934 326.543 -299.322 507.614 -350.365 595.176Z" stroke="url(#paint14_linear_20_109)" stroke-opacity="0.4" stroke-width="10"/>
<path opacity="0.666667" d="M-351.646 598.884C-403.85 685.591 -410.082 929.94 -338.441 1147.77C-347.82 1272.8 -349.183 1503.94 -279.601 1428.28C-192.623 1333.69 7.99337 1180.44 122.787 1162.87C237.58 1145.3 378.327 720.447 178.935 731.519C-20.4572 742.59 168.296 394.458 182.653 217.19C197.011 39.9233 -20.8577 238.054 -90.2597 285.695C-159.662 333.336 -299.442 512.177 -351.646 598.884Z" stroke="url(#paint15_linear_20_109)" stroke-opacity="0.4" stroke-width="10"/>
<path opacity="0.708333" d="M-353.013 602.717C-406.364 688.553 -415.875 932.487 -347.181 1151.07C-358.236 1275.8 -362.701 1506.61 -292.126 1432.05C-203.906 1338.86 -1.29728 1188.71 113.695 1172.83C228.687 1156.94 375.092 734.688 175.616 742.858C-23.8604 751.028 169.505 406.09 186.238 229.265C202.971 52.4411 -17.4873 247.155 -87.5065 293.728C-157.526 340.301 -299.661 516.881 -353.013 602.717Z" stroke="url(#paint16_linear_20_109)" stroke-opacity="0.4" stroke-width="10"/>
<path opacity="0.75" d="M-354.467 606.673C-408.952 691.623 -421.73 935.099 -355.992 1154.39C-368.715 1278.79 -376.274 1509.24 -304.723 1435.8C-215.284 1344.01 -10.7296 1197 104.437 1182.8C219.603 1168.6 371.621 749.024 172.103 754.292C-27.4155 759.56 170.511 417.877 189.609 241.527C208.707 65.1775 -14.2873 256.441 -84.9073 301.937C-155.527 347.434 -299.983 521.723 -354.467 606.673Z" stroke="url(#paint17_linear_20_109)" stroke-opacity="0.4" stroke-width="10"/>
<path opacity="0.791667" d="M-356.012 610.751C-411.615 694.8 -427.651 937.774 -364.873 1157.73C-379.258 1281.79 -389.902 1511.83 -317.392 1439.52C-226.755 1349.14 -20.3038 1205.29 95.0119 1192.79C210.328 1180.28 367.912 763.45 168.394 765.817C-31.1237 768.183 171.31 429.816 192.764 253.972C214.218 78.129 -11.2602 265.908 -82.4647 310.322C-153.669 354.735 -300.409 526.701 -356.012 610.751Z" stroke="url(#paint18_linear_20_109)" stroke-opacity="0.4" stroke-width="10"/>
<path opacity="0.833333" d="M-357.647 614.949C-414.354 698.083 -433.636 940.512 -373.825 1161.1C-389.865 1284.79 -403.584 1514.37 -330.133 1443.22C-238.32 1354.27 -30.0201 1213.6 85.4203 1202.79C200.861 1191.97 363.965 777.964 164.489 777.431C-34.9863 776.897 171.9 441.904 195.7 266.598C219.499 91.2921 -8.40852 275.556 -80.181 318.878C-151.953 362.2 -300.94 531.815 -357.647 614.949Z" stroke="url(#paint19_linear_20_109)" stroke-opacity="0.4" stroke-width="10"/>
<path opacity="0.875" d="M-359.375 619.266C-417.172 701.47 -439.687 943.311 -382.848 1164.49C-400.536 1287.79 -417.318 1516.88 -342.945 1446.88C-249.978 1359.38 -39.8785 1221.92 75.6618 1212.8C191.202 1203.67 359.778 792.563 160.387 789.13C-39.0044 785.698 172.281 454.138 198.414 279.4C224.548 104.663 -5.73442 285.38 -78.0583 327.604C-150.382 369.828 -301.578 537.061 -359.375 619.266Z" stroke="url(#paint20_linear_20_109)" stroke-opacity="0.4" stroke-width="10"/>
<path opacity="0.916667" d="M-361.198 623.7C-420.069 704.96 -445.805 946.169 -391.943 1167.9C-411.271 1290.78 -431.106 1519.34 -355.828 1450.52C-261.73 1364.48 -49.8792 1230.25 65.7364 1222.81C181.352 1215.38 355.351 807.241 156.086 800.913C-43.1792 794.584 172.449 466.514 200.906 292.376C229.363 118.239 -3.24032 295.379 -76.099 336.497C-148.958 377.616 -302.326 542.44 -361.198 623.7Z" stroke="url(#paint21_linear_20_109)" stroke-opacity="0.4" stroke-width="10"/>
<path opacity="0.958333" d="M-363.116 628.25C-423.047 708.552 -451.991 949.088 -401.11 1171.32C-422.069 1293.77 -444.946 1521.76 -368.781 1454.12C-273.575 1369.56 -60.0221 1238.58 55.644 1232.84C171.31 1227.1 350.682 821.997 151.585 812.775C-47.5116 803.552 172.403 479.029 203.172 305.522C233.941 132.015 -0.928437 305.548 -74.3051 345.555C-147.682 385.562 -303.185 547.948 -363.116 628.25Z" stroke="url(#paint22_linear_20_109)" stroke-opacity="0.4" stroke-width="10"/>
<path d="M-365.132 632.914C-426.107 712.245 -458.245 952.064 -410.349 1174.77C-432.931 1296.76 -458.838 1524.14 -381.804 1457.69C-285.512 1374.62 -70.3072 1246.91 45.3847 1242.86C161.077 1238.81 345.77 836.826 146.884 824.713C-52.0027 812.601 172.142 491.68 205.21 318.834C238.279 145.988 1.19912 315.886 -72.6787 354.775C-146.556 393.663 -304.157 553.584 -365.132 632.914Z" stroke="url(#paint23_linear_20_109)" stroke-opacity="0.4" stroke-width="10"/>
<defs>
<linearGradient id="paint0_linear_20_109" x1="-356.122" y1="630.534" x2="343.113" y2="764.1" gradientUnits="userSpaceOnUse">
<stop stop-color="#4ECDC4"/>
<stop offset="1" stop-color="#666666" stop-opacity="0"/>
</linearGradient>
<linearGradient id="paint1_linear_20_109" x1="-357.381" y1="632.032" x2="339.92" y2="775.347" gradientUnits="userSpaceOnUse">
<stop stop-color="#4ECDC4"/>
<stop offset="1" stop-color="#666666" stop-opacity="0"/>
</linearGradient>
<linearGradient id="paint2_linear_20_109" x1="-358.695" y1="633.658" x2="336.537" y2="786.695" gradientUnits="userSpaceOnUse">
<stop stop-color="#4ECDC4"/>
<stop offset="1" stop-color="#666666" stop-opacity="0"/>
</linearGradient>
<linearGradient id="paint3_linear_20_109" x1="-360.067" y1="635.411" x2="332.961" y2="798.14" gradientUnits="userSpaceOnUse">
<stop stop-color="#4ECDC4"/>
<stop offset="1" stop-color="#666666" stop-opacity="0"/>
</linearGradient>
<linearGradient id="paint4_linear_20_109" x1="-361.496" y1="637.291" x2="329.192" y2="809.681" gradientUnits="userSpaceOnUse">
<stop stop-color="#4ECDC4"/>
<stop offset="1" stop-color="#666666" stop-opacity="0"/>
</linearGradient>
<linearGradient id="paint5_linear_20_109" x1="-362.985" y1="639.296" x2="325.228" y2="821.312" gradientUnits="userSpaceOnUse">
<stop stop-color="#4ECDC4"/>
<stop offset="1" stop-color="#666666" stop-opacity="0"/>
</linearGradient>
<linearGradient id="paint6_linear_20_109" x1="-364.537" y1="641.425" x2="321.069" y2="833.033" gradientUnits="userSpaceOnUse">
<stop stop-color="#4ECDC4"/>
<stop offset="1" stop-color="#666666" stop-opacity="0"/>
</linearGradient>
<linearGradient id="paint7_linear_20_109" x1="-366.151" y1="643.678" x2="316.712" y2="844.84" gradientUnits="userSpaceOnUse">
<stop stop-color="#4ECDC4"/>
<stop offset="1" stop-color="#666666" stop-opacity="0"/>
</linearGradient>
<linearGradient id="paint8_linear_20_109" x1="-367.831" y1="646.053" x2="312.157" y2="856.729" gradientUnits="userSpaceOnUse">
<stop stop-color="#4ECDC4"/>
<stop offset="1" stop-color="#666666" stop-opacity="0"/>
</linearGradient>
<linearGradient id="paint9_linear_20_109" x1="-369.578" y1="648.549" x2="307.403" y2="868.699" gradientUnits="userSpaceOnUse">
<stop stop-color="#4ECDC4"/>
<stop offset="1" stop-color="#666666" stop-opacity="0"/>
</linearGradient>
<linearGradient id="paint10_linear_20_109" x1="-371.393" y1="651.165" x2="302.448" y2="880.746" gradientUnits="userSpaceOnUse">
<stop stop-color="#4ECDC4"/>
<stop offset="1" stop-color="#666666" stop-opacity="0"/>
</linearGradient>
<linearGradient id="paint11_linear_20_109" x1="-373.278" y1="653.9" x2="297.292" y2="892.866" gradientUnits="userSpaceOnUse">
<stop stop-color="#4ECDC4"/>
<stop offset="1" stop-color="#666666" stop-opacity="0"/>
</linearGradient>
<linearGradient id="paint12_linear_20_109" x1="-375.234" y1="656.752" x2="291.933" y2="905.058" gradientUnits="userSpaceOnUse">
<stop stop-color="#4ECDC4"/>
<stop offset="1" stop-color="#666666" stop-opacity="0"/>
</linearGradient>
<linearGradient id="paint13_linear_20_109" x1="-377.264" y1="659.721" x2="286.372" y2="917.318" gradientUnits="userSpaceOnUse">
<stop stop-color="#4ECDC4"/>
<stop offset="1" stop-color="#666666" stop-opacity="0"/>
</linearGradient>
<linearGradient id="paint14_linear_20_109" x1="-379.368" y1="662.805" x2="280.606" y2="929.642" gradientUnits="userSpaceOnUse">
<stop stop-color="#4ECDC4"/>
<stop offset="1" stop-color="#666666" stop-opacity="0"/>
</linearGradient>
<linearGradient id="paint15_linear_20_109" x1="-381.548" y1="666.003" x2="274.636" y2="942.029" gradientUnits="userSpaceOnUse">
<stop stop-color="#4ECDC4"/>
<stop offset="1" stop-color="#666666" stop-opacity="0"/>
</linearGradient>
<linearGradient id="paint16_linear_20_109" x1="-383.807" y1="669.314" x2="268.46" y2="954.474" gradientUnits="userSpaceOnUse">
<stop stop-color="#4ECDC4"/>
<stop offset="1" stop-color="#666666" stop-opacity="0"/>
</linearGradient>
<linearGradient id="paint17_linear_20_109" x1="-386.144" y1="672.736" x2="262.077" y2="966.976" gradientUnits="userSpaceOnUse">
<stop stop-color="#4ECDC4"/>
<stop offset="1" stop-color="#666666" stop-opacity="0"/>
</linearGradient>
<linearGradient id="paint18_linear_20_109" x1="-388.562" y1="676.268" x2="255.488" y2="979.53" gradientUnits="userSpaceOnUse">
<stop stop-color="#4ECDC4"/>
<stop offset="1" stop-color="#666666" stop-opacity="0"/>
</linearGradient>
<linearGradient id="paint19_linear_20_109" x1="-391.062" y1="679.909" x2="248.691" y2="992.134" gradientUnits="userSpaceOnUse">
<stop stop-color="#4ECDC4"/>
<stop offset="1" stop-color="#666666" stop-opacity="0"/>
</linearGradient>
<linearGradient id="paint20_linear_20_109" x1="-393.646" y1="683.658" x2="241.685" y2="1004.78" gradientUnits="userSpaceOnUse">
<stop stop-color="#4ECDC4"/>
<stop offset="1" stop-color="#666666" stop-opacity="0"/>
</linearGradient>
<linearGradient id="paint21_linear_20_109" x1="-396.315" y1="687.513" x2="234.471" y2="1017.48" gradientUnits="userSpaceOnUse">
<stop stop-color="#4ECDC4"/>
<stop offset="1" stop-color="#666666" stop-opacity="0"/>
</linearGradient>
<linearGradient id="paint22_linear_20_109" x1="-399.07" y1="691.473" x2="227.048" y2="1030.21" gradientUnits="userSpaceOnUse">
<stop stop-color="#4ECDC4"/>
<stop offset="1" stop-color="#666666" stop-opacity="0"/>
</linearGradient>
<linearGradient id="paint23_linear_20_109" x1="-401.912" y1="695.535" x2="219.414" y2="1042.99" gradientUnits="userSpaceOnUse">
<stop stop-color="#4ECDC4"/>
<stop offset="1" stop-color="#666666" stop-opacity="0"/>
</linearGradient>
</defs>
</svg>
